<svg xmlns="http://www.w3.org/2000/svg" width="38" height="30" viewBox="0 0 38 30">
    <g fill="none" fill-rule="evenodd">
        <g>
            <g>
                <g>
                    <path fill="#006095" d="M19.912 26.729c7.36.036 14.077-5.958 14.077-13.248C33.99 5.508 27.271-.002 19.912 0h-6.334C6.13-.002 0 5.51 0 13.48c0 7.293 6.13 13.285 13.578 13.249h6.334" transform="translate(-716 -51) translate(716 51) translate(1.81 1.8)"/>
                    <path fill="#FFF" d="M13.608 1.105C6.802 1.107 1.288 6.583 1.286 13.34c.001 6.757 5.516 12.232 12.322 12.234 6.807-.002 12.323-5.477 12.324-12.234-.001-6.758-5.517-12.234-12.324-12.236M5.798 13.34c.006-3.303 2.083-6.118 5.013-7.238v14.474c-2.93-1.119-5.007-3.933-5.014-7.236m10.606 7.239V6.103c2.931 1.116 5.012 3.933 5.017 7.238-.005 3.305-2.086 6.12-5.017 7.239" transform="translate(-716 -51) translate(716 51) translate(1.81 1.8)"/>
                </g>
            </g>
        </g>
    </g>
</svg>
