<svg xmlns="http://www.w3.org/2000/svg" width="66" height="50" viewBox="0 0 66 50">
    <g fill="none">
        <path fill="#7578B9" d="M19.757 3.586H34.477000000000004V29.942999999999998H19.757z" transform="translate(6 9)"/>
        <path fill="#E51B24" d="M20.695 16.763c-.002-5.147 2.368-10.009 6.426-13.177C20.25-1.816 10.38-1.03 4.448 5.391c-5.93 6.422-5.93 16.323 0 22.745 5.931 6.421 15.801 7.207 22.673 1.804-4.058-3.167-6.428-8.029-6.426-13.177z" transform="translate(6 9)"/>
        <path fill="#00ACE8" d="M54.33 16.763c-.026 6.428-3.711 12.28-9.497 15.082-5.786 2.8-12.662 2.062-17.72-1.905 4.056-3.169 6.427-8.03 6.427-13.177S31.169 6.755 27.113 3.586C32.17-.38 39.047-1.119 44.833 1.682s9.47 8.653 9.497 15.081z" transform="translate(6 9)"/>
    </g>
</svg>
